<?xml version="1.0" encoding="UTF-8" standalone="no"?>
<!-- Created with Inkscape (http://www.inkscape.org/) -->

<svg
   xmlns:dc="http://purl.org/dc/elements/1.1/"
   xmlns:cc="http://creativecommons.org/ns#"
   xmlns:rdf="http://www.w3.org/1999/02/22-rdf-syntax-ns#"
   xmlns:svg="http://www.w3.org/2000/svg"
   xmlns="http://www.w3.org/2000/svg"
   xmlns:sodipodi="http://sodipodi.sourceforge.net/DTD/sodipodi-0.dtd"
   xmlns:inkscape="http://www.inkscape.org/namespaces/inkscape"
   width="100"
   height="100"
   id="svg2"
   version="1.1"
   inkscape:version="0.48.4 r9939"
   sodipodi:docname="uploadbg.svg">
  <defs
     id="defs4" />
  <sodipodi:namedview
     id="base"
     pagecolor="#ffffff"
     bordercolor="#666666"
     borderopacity="1.0"
     inkscape:pageopacity="0.0"
     inkscape:pageshadow="2"
     inkscape:zoom="5.19"
     inkscape:cx="50"
     inkscape:cy="50"
     inkscape:document-units="px"
     inkscape:current-layer="layer1"
     showgrid="false"
     inkscape:window-width="1366"
     inkscape:window-height="706"
     inkscape:window-x="-8"
     inkscape:window-y="-8"
     inkscape:window-maximized="1" />
  <metadata
     id="metadata7">
    <rdf:RDF>
      <cc:Work
         rdf:about="">
        <dc:format>image/svg+xml</dc:format>
        <dc:type
           rdf:resource="http://purl.org/dc/dcmitype/StillImage" />
        <dc:title></dc:title>
      </cc:Work>
    </rdf:RDF>
  </metadata>
  <g
     inkscape:label="1. réteg"
     inkscape:groupmode="layer"
     id="layer1"
     transform="translate(0,-952.36218)">
    <text
       xml:space="preserve"
       style="font-size:13px;font-style:normal;font-weight:normal;line-height:125%;letter-spacing:0px;word-spacing:0px;fill:#000000;fill-opacity:1;stroke:none;font-family:Sans"
       x="-41.811176"
       y="974.71283"
       id="text2985"
       sodipodi:linespacing="125%"><tspan
         sodipodi:role="line"
         id="tspan2987"
         x="-41.811176"
         y="974.71283" /></text>
    <g
       transform="matrix(0.83194801,0,0,0.83194801,-13.158991,961.22398)"
       style="font-size:13px;font-style:normal;font-weight:normal;line-height:125%;letter-spacing:0px;word-spacing:0px;fill:#b3b3b3;fill-opacity:1;stroke:none;font-family:Sans"
       id="flowRoot2989">
      <path
         d="m 22.904297,23.574485 0,-7.158203 2.46582,0 c 0.556637,7e-6 0.981441,0.03419 1.274414,0.102539 0.410152,0.09441 0.760086,0.265306 1.049805,0.512695 0.377598,0.319017 0.659987,0.726731 0.847168,1.223145 0.187168,0.496424 0.280755,1.063643 0.280762,1.70166 -7e-6,0.543623 -0.06348,1.025393 -0.19043,1.445312 -0.12696,0.419924 -0.28972,0.767417 -0.488281,1.042481 -0.198574,0.275066 -0.415859,0.491537 -0.651856,0.649414 -0.236008,0.157878 -0.520838,0.277506 -0.854492,0.358886 -0.333663,0.08138 -0.716963,0.122071 -1.149902,0.122071 z m 0.947265,-0.844727 1.528321,0 c 0.472001,1e-6 0.842281,-0.04394 1.11084,-0.131836 0.26855,-0.08789 0.482579,-0.211587 0.642089,-0.371093 0.224605,-0.224608 0.399572,-0.526529 0.524903,-0.905762 0.12532,-0.379229 0.187982,-0.839027 0.187988,-1.379395 -6e-6,-0.748693 -0.12289,-1.324051 -0.368652,-1.726074 -0.245774,-0.402012 -0.544439,-0.671381 -0.895996,-0.808105 -0.253911,-0.09765 -0.662439,-0.146478 -1.225586,-0.146485 l -1.503907,0 z"
         style="font-size:10px;fill:#b3b3b3;font-family:Arial;-inkscape-font-specification:Arial"
         id="path3034" />
      <path
         d="m 30.008789,23.574485 0,-5.185547 0.791016,0 0,0.786133 c 0.201821,-0.367834 0.388181,-0.610347 0.559082,-0.727539 0.170896,-0.117183 0.358884,-0.175776 0.563965,-0.175782 0.296221,6e-6 0.597327,0.09441 0.90332,0.283204 l -0.302735,0.815429 c -0.214846,-0.126949 -0.42969,-0.190425 -0.644531,-0.190429 -0.192059,4e-6 -0.364585,0.05778 -0.517578,0.173339 -0.152997,0.115564 -0.262046,0.275883 -0.327148,0.480957 -0.09766,0.312504 -0.146486,0.6543 -0.146485,1.025391 l 0,2.714844 z"
         style="font-size:10px;fill:#b3b3b3;font-family:Arial;-inkscape-font-specification:Arial"
         id="path3036" />
      <path
         d="m 36.742187,22.934836 c -0.325524,0.276693 -0.638838,0.472006 -0.939941,0.585938 -0.301109,0.113932 -0.624189,0.170898 -0.969238,0.170898 -0.569663,0 -1.007488,-0.13916 -1.313477,-0.41748 -0.30599,-0.27832 -0.458984,-0.633951 -0.458984,-1.066895 0,-0.253904 0.05778,-0.485838 0.17334,-0.695801 0.115559,-0.209958 0.266926,-0.378415 0.454101,-0.505371 0.187174,-0.12695 0.397948,-0.222979 0.632324,-0.288086 0.172525,-0.04557 0.432941,-0.08952 0.78125,-0.131835 0.709633,-0.08463 1.232093,-0.185544 1.567383,-0.302735 0.0033,-0.120439 0.0049,-0.196936 0.0049,-0.229492 -4e-6,-0.358069 -0.08301,-0.610347 -0.249023,-0.756836 -0.224613,-0.198563 -0.558272,-0.297847 -1.000977,-0.297852 -0.413414,5e-6 -0.718589,0.07243 -0.915527,0.217286 -0.196942,0.144861 -0.342612,0.401208 -0.437012,0.769043 L 33.211914,19.86843 c 0.07812,-0.367834 0.206705,-0.664872 0.385742,-0.891113 0.179036,-0.226232 0.437824,-0.400386 0.776367,-0.522461 0.33854,-0.122065 0.730792,-0.1831 1.176758,-0.183106 0.442705,6e-6 0.802405,0.05209 1.079102,0.15625 0.276688,0.104172 0.480139,0.235194 0.610351,0.393067 0.130204,0.157882 0.22135,0.357263 0.273438,0.598144 0.02929,0.149744 0.04394,0.419926 0.04395,0.810547 l 0,1.171875 c -5e-6,0.817059 0.01871,1.333823 0.05615,1.550293 0.03743,0.216472 0.111485,0.423991 0.222167,0.622559 l -0.917968,0 c -0.09115,-0.182292 -0.149744,-0.395508 -0.175782,-0.639649 z m -0.07324,-1.96289 c -0.319014,0.130211 -0.797529,0.240887 -1.435547,0.332031 -0.36133,0.05209 -0.616863,0.110679 -0.766601,0.175781 -0.149741,0.06511 -0.265301,0.160321 -0.34668,0.285645 -0.08138,0.125327 -0.122071,0.264487 -0.12207,0.41748 -10e-7,0.234376 0.0887,0.429689 0.266113,0.585938 0.177407,0.15625 0.43701,0.234375 0.778809,0.234375 0.338539,0 0.639645,-0.07406 0.90332,-0.222168 0.263668,-0.148111 0.457353,-0.350748 0.581055,-0.60791 0.0944,-0.198567 0.141597,-0.491535 0.141601,-0.878907 z"
         style="font-size:10px;fill:#b3b3b3;font-family:Arial;-inkscape-font-specification:Arial"
         id="path3038" />
      <path
         d="m 38.763672,24.004172 0.854492,0.126953 c 0.03581,0.263671 0.13509,0.455729 0.297852,0.576172 0.218097,0.162759 0.515948,0.24414 0.893554,0.244141 0.406898,-1e-6 0.721026,-0.08138 0.942383,-0.244141 0.221351,-0.162761 0.37109,-0.390625 0.449219,-0.683593 0.04557,-0.179037 0.06673,-0.555013 0.06348,-1.12793 -0.384118,0.452474 -0.862633,0.678711 -1.435546,0.678711 -0.712893,0 -1.26465,-0.257161 -1.655274,-0.771485 -0.390625,-0.514321 -0.585938,-1.131183 -0.585937,-1.850586 -10e-7,-0.494788 0.08952,-0.951331 0.268554,-1.369628 0.179036,-0.41829 0.438639,-0.741369 0.778809,-0.969239 0.340167,-0.227859 0.739744,-0.341791 1.19873,-0.341797 0.611976,6e-6 1.116533,0.247401 1.513672,0.742188 l 0,-0.625 0.810547,0 0,4.482422 c -5e-6,0.807291 -0.0822,1.379394 -0.246582,1.716308 -0.164392,0.336913 -0.424809,0.603026 -0.78125,0.79834 -0.356449,0.195311 -0.795088,0.292967 -1.315918,0.292969 -0.618491,-2e-6 -1.118165,-0.139162 -1.499023,-0.417481 -0.38086,-0.278321 -0.564779,-0.697429 -0.551758,-1.257324 z m 0.727539,-3.115234 c -10e-7,0.68034 0.13509,1.176759 0.405273,1.489258 0.270181,0.312501 0.608722,0.46875 1.015625,0.46875 0.403643,0 0.742184,-0.155436 1.015625,-0.466309 0.273434,-0.310871 0.410153,-0.798338 0.410157,-1.462402 -4e-6,-0.634763 -0.140792,-1.113278 -0.422364,-1.435547 -0.281579,-0.322261 -0.620934,-0.483394 -1.018066,-0.483399 -0.390627,5e-6 -0.722658,0.158696 -0.996094,0.476075 -0.273439,0.317386 -0.410157,0.788577 -0.410156,1.413574 z"
         style="font-size:10px;fill:#b3b3b3;font-family:Arial;-inkscape-font-specification:Arial"
         id="path3040" />
      <path
         d="m 50.648437,22.934836 c -0.325524,0.276693 -0.638838,0.472006 -0.939941,0.585938 -0.301109,0.113932 -0.624189,0.170898 -0.969238,0.170898 -0.569663,0 -1.007488,-0.13916 -1.313477,-0.41748 -0.30599,-0.27832 -0.458984,-0.633951 -0.458984,-1.066895 0,-0.253904 0.05778,-0.485838 0.17334,-0.695801 0.115559,-0.209958 0.266926,-0.378415 0.454101,-0.505371 0.187174,-0.12695 0.397948,-0.222979 0.632324,-0.288086 0.172525,-0.04557 0.432941,-0.08952 0.78125,-0.131835 0.709633,-0.08463 1.232093,-0.185544 1.567383,-0.302735 0.0033,-0.120439 0.0049,-0.196936 0.0049,-0.229492 -4e-6,-0.358069 -0.08301,-0.610347 -0.249023,-0.756836 -0.224613,-0.198563 -0.558272,-0.297847 -1.000977,-0.297852 -0.413414,5e-6 -0.718589,0.07243 -0.915527,0.217286 -0.196942,0.144861 -0.342612,0.401208 -0.437012,0.769043 L 47.118164,19.86843 c 0.07812,-0.367834 0.206705,-0.664872 0.385742,-0.891113 0.179036,-0.226232 0.437824,-0.400386 0.776367,-0.522461 0.33854,-0.122065 0.730792,-0.1831 1.176758,-0.183106 0.442705,6e-6 0.802405,0.05209 1.079102,0.15625 0.276688,0.104172 0.480139,0.235194 0.610351,0.393067 0.130204,0.157882 0.22135,0.357263 0.273438,0.598144 0.02929,0.149744 0.04394,0.419926 0.04395,0.810547 l 0,1.171875 c -5e-6,0.817059 0.01871,1.333823 0.05615,1.550293 0.03743,0.216472 0.111485,0.423991 0.222167,0.622559 l -0.917968,0 c -0.09115,-0.182292 -0.149744,-0.395508 -0.175782,-0.639649 z m -0.07324,-1.96289 c -0.319014,0.130211 -0.797529,0.240887 -1.435547,0.332031 -0.36133,0.05209 -0.616863,0.110679 -0.766601,0.175781 -0.149741,0.06511 -0.265301,0.160321 -0.34668,0.285645 -0.08138,0.125327 -0.122071,0.264487 -0.12207,0.41748 -10e-7,0.234376 0.0887,0.429689 0.266113,0.585938 0.177407,0.15625 0.43701,0.234375 0.778809,0.234375 0.338539,0 0.639645,-0.07406 0.90332,-0.222168 0.263668,-0.148111 0.457353,-0.350748 0.581055,-0.60791 0.0944,-0.198567 0.141597,-0.491535 0.141601,-0.878907 z"
         style="font-size:10px;fill:#b3b3b3;font-family:Arial;-inkscape-font-specification:Arial"
         id="path3042" />
      <path
         d="m 52.831055,23.574485 0,-5.185547 0.791015,0 0,0.737305 c 0.380858,-0.569657 0.930988,-0.854487 1.650391,-0.854493 0.312497,6e-6 0.599768,0.05616 0.861816,0.168457 0.26204,0.11231 0.458166,0.259608 0.588379,0.441895 0.130204,0.182296 0.22135,0.398767 0.273438,0.649414 0.03255,0.162764 0.04882,0.447595 0.04883,0.854492 l 0,3.188477 -0.878906,0 0,-3.154297 c -4e-6,-0.35807 -0.03418,-0.62581 -0.102539,-0.803223 -0.06836,-0.177404 -0.18962,-0.319006 -0.36377,-0.424804 -0.174157,-0.10579 -0.378421,-0.158687 -0.612793,-0.158692 -0.374351,5e-6 -0.697431,0.11882 -0.969238,0.356445 -0.271812,0.237635 -0.407717,0.688481 -0.407715,1.35254 l 0,2.832031 z"
         style="font-size:10px;fill:#b3b3b3;font-family:Arial;-inkscape-font-specification:Arial"
         id="path3044" />
      <path
         d="m 61.761719,23.574485 0,-0.654297 c -0.32878,0.514323 -0.812178,0.771484 -1.450196,0.771484 -0.413413,0 -0.793458,-0.113932 -1.140136,-0.341797 -0.346681,-0.227864 -0.615235,-0.54606 -0.805664,-0.954589 -0.19043,-0.408528 -0.285645,-0.878091 -0.285645,-1.408692 0,-0.517575 0.08626,-0.987138 0.258789,-1.408691 0.172525,-0.421545 0.431314,-0.744624 0.776367,-0.969239 0.345051,-0.224604 0.730793,-0.336908 1.157227,-0.336914 0.312497,6e-6 0.590817,0.06592 0.834961,0.197754 0.244137,0.131841 0.442704,0.303553 0.595703,0.515137 l 0,-2.568359 0.874023,0 0,7.158203 z m -2.778321,-2.587891 c -1e-6,0.664065 0.139973,1.160483 0.419922,1.489258 0.279946,0.328777 0.61035,0.493165 0.991211,0.493164 0.384112,1e-6 0.710446,-0.157063 0.979004,-0.471191 0.268551,-0.314127 0.402828,-0.793456 0.402832,-1.437989 -4e-6,-0.709632 -0.136722,-1.230465 -0.410156,-1.5625 -0.273441,-0.332027 -0.610355,-0.498042 -1.010742,-0.498047 -0.390627,5e-6 -0.716962,0.15951 -0.979004,0.478516 -0.262046,0.319014 -0.393068,0.821943 -0.393067,1.508789 z"
         style="font-size:10px;fill:#b3b3b3;font-family:Arial;-inkscape-font-specification:Arial"
         id="path3046" />
      <path
         d="m 70.101562,23.574485 0,-0.654297 c -0.328779,0.514323 -0.812177,0.771484 -1.450195,0.771484 -0.413413,0 -0.793459,-0.113932 -1.140137,-0.341797 -0.34668,-0.227864 -0.615235,-0.54606 -0.805664,-0.954589 -0.19043,-0.408528 -0.285644,-0.878091 -0.285644,-1.408692 0,-0.517575 0.08626,-0.987138 0.258789,-1.408691 0.172525,-0.421545 0.431314,-0.744624 0.776367,-0.969239 0.34505,-0.224604 0.730792,-0.336908 1.157227,-0.336914 0.312497,6e-6 0.590817,0.06592 0.834961,0.197754 0.244137,0.131841 0.442704,0.303553 0.595703,0.515137 l 0,-2.568359 0.874023,0 0,7.158203 z m -2.77832,-2.587891 c -10e-7,0.664065 0.139973,1.160483 0.419922,1.489258 0.279946,0.328777 0.610349,0.493165 0.991211,0.493164 0.384112,1e-6 0.710446,-0.157063 0.979004,-0.471191 0.268551,-0.314127 0.402828,-0.793456 0.402832,-1.437989 -4e-6,-0.709632 -0.136723,-1.230465 -0.410156,-1.5625 -0.273441,-0.332027 -0.610355,-0.498042 -1.010743,-0.498047 -0.390627,5e-6 -0.716961,0.15951 -0.979003,0.478516 -0.262046,0.319014 -0.393068,0.821943 -0.393067,1.508789 z"
         style="font-size:10px;fill:#b3b3b3;font-family:Arial;-inkscape-font-specification:Arial"
         id="path3048" />
      <path
         d="m 72.293945,23.574485 0,-5.185547 0.791016,0 0,0.786133 c 0.201821,-0.367834 0.388182,-0.610347 0.559082,-0.727539 0.170896,-0.117183 0.358884,-0.175776 0.563965,-0.175782 0.296221,6e-6 0.597327,0.09441 0.90332,0.283204 l -0.302734,0.815429 c -0.214847,-0.126949 -0.42969,-0.190425 -0.644532,-0.190429 -0.192059,4e-6 -0.364585,0.05778 -0.517578,0.173339 -0.152996,0.115564 -0.262046,0.275883 -0.327148,0.480957 -0.09766,0.312504 -0.146486,0.6543 -0.146484,1.025391 l 0,2.714844 z"
         style="font-size:10px;fill:#b3b3b3;font-family:Arial;-inkscape-font-specification:Arial"
         id="path3050" />
      <path
         d="m 75.316406,20.981711 c 0,-0.960283 0.266927,-1.671545 0.800781,-2.133789 0.445962,-0.384109 0.989582,-0.576166 1.63086,-0.576172 0.712887,6e-6 1.295569,0.233567 1.748047,0.700684 0.452469,0.467127 0.678705,1.112471 0.678711,1.936035 -6e-6,0.66732 -0.100103,1.192222 -0.300293,1.574707 -0.2002,0.382488 -0.491541,0.679525 -0.874024,0.891113 -0.38249,0.211589 -0.79997,0.317383 -1.252441,0.317383 -0.725914,0 -1.312664,-0.232747 -1.760254,-0.698242 -0.447592,-0.465494 -0.671387,-1.136066 -0.671387,-2.011719 z m 0.903321,0 c -2e-6,0.664065 0.144855,1.161297 0.43457,1.4917 0.289711,0.330404 0.654294,0.495606 1.09375,0.495605 0.436195,1e-6 0.79915,-0.166015 1.088867,-0.498047 0.289709,-0.33203 0.434566,-0.838214 0.43457,-1.518555 -4e-6,-0.641272 -0.145674,-1.127112 -0.437011,-1.457519 -0.291345,-0.330399 -0.653487,-0.495601 -1.086426,-0.495606 -0.439456,5e-6 -0.804039,0.164393 -1.09375,0.493165 -0.289715,0.328779 -0.434572,0.825198 -0.43457,1.489257 z"
         style="font-size:10px;fill:#b3b3b3;font-family:Arial;-inkscape-font-specification:Arial"
         id="path3052" />
      <path
         d="m 81.209961,25.561789 0,-7.172851 0.800781,0 0,0.673828 c 0.188801,-0.263667 0.402017,-0.461421 0.639649,-0.593262 0.237627,-0.13183 0.525713,-0.197748 0.864257,-0.197754 0.442705,6e-6 0.83333,0.113938 1.171875,0.341797 0.338538,0.22787 0.594071,0.549321 0.766602,0.964356 0.172521,0.415042 0.258784,0.869957 0.258789,1.364746 -5e-6,0.530601 -0.09522,1.008302 -0.285644,1.433105 -0.190435,0.424806 -0.467127,0.750326 -0.830079,0.976563 -0.362959,0.226237 -0.744632,0.339355 -1.145019,0.339355 -0.292971,0 -0.555829,-0.06185 -0.788574,-0.185547 -0.23275,-0.123697 -0.423993,-0.279947 -0.573731,-0.46875 l 0,2.524414 z m 0.795898,-4.550781 c -10e-7,0.66732 0.13509,1.160483 0.405274,1.479492 0.27018,0.319012 0.597328,0.478517 0.981445,0.478516 0.390622,1e-6 0.725094,-0.165201 1.003418,-0.495605 0.278316,-0.330403 0.417476,-0.842284 0.417481,-1.535645 -5e-6,-0.660804 -0.13591,-1.155595 -0.407715,-1.484375 -0.271814,-0.328772 -0.59652,-0.493159 -0.974121,-0.493164 -0.374352,5e-6 -0.705569,0.174972 -0.993653,0.524902 -0.288087,0.349939 -0.43213,0.858565 -0.432129,1.525879 z"
         style="font-size:10px;fill:#b3b3b3;font-family:Arial;-inkscape-font-specification:Arial"
         id="path3054" />
      <path
         d="m 89.510742,25.571555 -0.09766,-0.825195 c 0.192057,0.05208 0.3597,0.07812 0.50293,0.07813 0.195311,-10e-7 0.351561,-0.03255 0.46875,-0.09766 0.117186,-0.06511 0.213214,-0.156251 0.288086,-0.273438 0.05534,-0.08789 0.144854,-0.30599 0.268554,-0.654297 0.01627,-0.04883 0.04232,-0.120443 0.07813,-0.214844 l -1.967773,-5.195312 0.947265,0 1.079102,3.00293 c 0.139972,0.380861 0.265297,0.781251 0.375977,1.201171 0.100908,-0.403644 0.221351,-0.797524 0.361328,-1.18164 l 1.108398,-3.022461 0.878906,0 -1.972656,5.273437 c -0.211591,0.569661 -0.375979,0.961913 -0.493164,1.176758 -0.156252,0.289712 -0.335289,0.502114 -0.537109,0.637207 -0.201825,0.135089 -0.44271,0.202635 -0.722657,0.202637 -0.169271,-2e-6 -0.358073,-0.03581 -0.566406,-0.107422 z"
         style="font-size:10px;fill:#b3b3b3;font-family:Arial;-inkscape-font-specification:Arial"
         id="path3056" />
      <path
         d="m 94.222656,20.981711 c 0,-0.960283 0.266927,-1.671545 0.800781,-2.133789 0.445962,-0.384109 0.989582,-0.576166 1.63086,-0.576172 0.712887,6e-6 1.295569,0.233567 1.748047,0.700684 0.452469,0.467127 0.678705,1.112471 0.678711,1.936035 -6e-6,0.66732 -0.100103,1.192222 -0.300293,1.574707 -0.2002,0.382488 -0.491541,0.679525 -0.874024,0.891113 -0.38249,0.211589 -0.79997,0.317383 -1.252441,0.317383 -0.725914,0 -1.312664,-0.232747 -1.760254,-0.698242 -0.447592,-0.465494 -0.671387,-1.136066 -0.671387,-2.011719 z m 0.903321,0 c -2e-6,0.664065 0.144855,1.161297 0.43457,1.4917 0.289711,0.330404 0.654294,0.495606 1.09375,0.495605 0.436195,1e-6 0.79915,-0.166015 1.088867,-0.498047 0.289709,-0.33203 0.434566,-0.838214 0.43457,-1.518555 -4e-6,-0.641272 -0.145674,-1.127112 -0.437011,-1.457519 -0.291345,-0.330399 -0.653487,-0.495601 -1.086426,-0.495606 -0.439456,5e-6 -0.804039,0.164393 -1.09375,0.493165 -0.289715,0.328779 -0.434572,0.825198 -0.43457,1.489257 z"
         style="font-size:10px;fill:#b3b3b3;font-family:Arial;-inkscape-font-specification:Arial"
         id="path3058" />
      <path
         d="m 103.51465,23.574485 0,-0.761719 c -0.40365,0.585938 -0.95215,0.878906 -1.64551,0.878906 -0.30599,0 -0.59164,-0.05859 -0.85693,-0.175781 -0.2653,-0.117187 -0.46224,-0.264485 -0.59082,-0.441895 -0.12858,-0.177408 -0.21892,-0.394693 -0.271,-0.651855 -0.0358,-0.172525 -0.0537,-0.445962 -0.0537,-0.820312 l 0,-3.212891 0.87891,0 0,2.875976 c -1e-5,0.458987 0.0179,0.768231 0.0537,0.927735 0.0553,0.231121 0.17252,0.412598 0.35156,0.544433 0.17903,0.131837 0.40039,0.197755 0.66406,0.197754 0.26367,1e-6 0.51107,-0.06754 0.74219,-0.202636 0.23112,-0.135091 0.39469,-0.31901 0.49072,-0.551758 0.096,-0.232746 0.14404,-0.570473 0.14405,-1.013184 l 0,-2.77832 0.8789,0 0,5.185547 z"
         style="font-size:10px;fill:#b3b3b3;font-family:Arial;-inkscape-font-specification:Arial"
         id="path3060" />
      <path
         d="m 105.67285,23.574485 0,-5.185547 0.79102,0 0,0.786133 c 0.20182,-0.367834 0.38818,-0.610347 0.55908,-0.727539 0.1709,-0.117183 0.35888,-0.175776 0.56396,-0.175782 0.29623,6e-6 0.59733,0.09441 0.90332,0.283204 l -0.30273,0.815429 c -0.21485,-0.126949 -0.42969,-0.190425 -0.64453,-0.190429 -0.19206,4e-6 -0.36459,0.05778 -0.51758,0.173339 -0.153,0.115564 -0.26205,0.275883 -0.32715,0.480957 -0.0977,0.312504 -0.14648,0.6543 -0.14648,1.025391 l 0,2.714844 z"
         style="font-size:10px;fill:#b3b3b3;font-family:Arial;-inkscape-font-specification:Arial"
         id="path3062" />
      <path
         d="m 112.00586,23.574485 0,-4.501953 -0.77637,0 0,-0.683594 0.77637,0 0,-0.551758 c 0,-0.348301 0.0309,-0.60709 0.0928,-0.776367 0.0846,-0.227858 0.23356,-0.412591 0.44678,-0.554199 0.21321,-0.141595 0.51188,-0.212395 0.896,-0.212403 0.24739,8e-6 0.52083,0.0293 0.82031,0.08789 l -0.13184,0.766602 c -0.18229,-0.03255 -0.35482,-0.04882 -0.51758,-0.04883 -0.26692,7e-6 -0.45573,0.05697 -0.5664,0.170899 -0.11068,0.113938 -0.16602,0.327154 -0.16602,0.639648 l 0,0.478516 1.01075,0 0,0.683594 -1.01075,0 0,4.501953 z"
         style="font-size:10px;fill:#b3b3b3;font-family:Arial;-inkscape-font-specification:Arial"
         id="path3064" />
      <path
         d="m 114.57422,17.427024 0,-1.010742 0.87891,0 0,1.010742 z m 0,6.147461 0,-5.185547 0.87891,0 0,5.185547 z"
         style="font-size:10px;fill:#b3b3b3;font-family:Arial;-inkscape-font-specification:Arial"
         id="path3066" />
      <path
         d="m 116.77637,23.574485 0,-7.158203 0.8789,0 0,7.158203 z"
         style="font-size:10px;fill:#b3b3b3;font-family:Arial;-inkscape-font-specification:Arial"
         id="path3068" />
      <path
         d="m 122.57227,21.904563 0.9082,0.112305 c -0.14324,0.5306 -0.40853,0.942383 -0.7959,1.235351 -0.38737,0.292969 -0.88216,0.439453 -1.48437,0.439453 -0.75847,0 -1.35987,-0.233561 -1.8042,-0.700683 -0.44434,-0.467122 -0.66651,-1.122232 -0.66651,-1.965332 0,-0.872393 0.22461,-1.549475 0.67383,-2.03125 0.44922,-0.481766 1.0319,-0.722651 1.74805,-0.722657 0.69335,6e-6 1.25976,0.236008 1.69922,0.708008 0.43944,0.47201 0.65917,1.136071 0.65918,1.992188 -1e-5,0.05209 -0.002,0.130211 -0.005,0.234375 l -3.86718,0 c 0.0326,0.569663 0.19368,1.00586 0.48339,1.308593 0.28972,0.302736 0.65104,0.454103 1.08399,0.454102 0.32226,1e-6 0.59733,-0.08463 0.82519,-0.253906 0.22786,-0.16927 0.40853,-0.439452 0.542,-0.810547 z m -2.88575,-1.420899 2.89551,0 c -0.0391,-0.436194 -0.14974,-0.763342 -0.33203,-0.981445 -0.27995,-0.338537 -0.64291,-0.507808 -1.08887,-0.507812 -0.40365,4e-6 -0.743,0.135095 -1.01806,0.405273 -0.27507,0.270186 -0.42725,0.631514 -0.45655,1.083984 z"
         style="font-size:10px;fill:#b3b3b3;font-family:Arial;-inkscape-font-specification:Arial"
         id="path3070" />
      <path
         d="m 124.2373,22.026633 0.86915,-0.136719 c 0.0488,0.348309 0.18473,0.615236 0.40771,0.800782 0.22298,0.185547 0.53467,0.278321 0.93506,0.27832 0.40364,1e-6 0.70312,-0.08219 0.89844,-0.246582 0.19531,-0.164387 0.29296,-0.357258 0.29297,-0.578613 -1e-5,-0.198566 -0.0863,-0.354816 -0.25879,-0.46875 -0.12045,-0.07812 -0.41993,-0.177407 -0.89844,-0.297852 -0.64453,-0.162758 -1.09131,-0.303546 -1.34033,-0.422363 -0.24903,-0.118813 -0.43783,-0.2832 -0.56641,-0.493164 -0.12858,-0.209958 -0.19287,-0.441891 -0.19287,-0.695801 0,-0.231116 0.0529,-0.445145 0.15869,-0.64209 0.10579,-0.196935 0.24984,-0.360509 0.43213,-0.490722 0.13672,-0.100907 0.32308,-0.186356 0.55908,-0.256348 0.236,-0.06998 0.48909,-0.104975 0.75928,-0.104981 0.4069,6e-6 0.76416,0.0586 1.07178,0.175782 0.30761,0.117192 0.53466,0.275883 0.68115,0.476074 0.14648,0.2002 0.24739,0.46794 0.30273,0.803223 l -0.85937,0.117187 c -0.0391,-0.266923 -0.15219,-0.475256 -0.33936,-0.625 -0.18718,-0.149735 -0.45166,-0.224605 -0.79345,-0.224609 -0.40365,4e-6 -0.69174,0.06674 -0.86426,0.200195 -0.17253,0.133468 -0.25879,0.289718 -0.25879,0.46875 0,0.113936 0.0358,0.216475 0.10742,0.307617 0.0716,0.0944 0.18392,0.17253 0.33691,0.234375 0.0879,0.03256 0.34668,0.107425 0.77637,0.22461 0.62174,0.166018 1.0555,0.301923 1.30127,0.407714 0.24577,0.105797 0.43864,0.259606 0.57861,0.461426 0.13997,0.201825 0.20996,0.452476 0.20997,0.751953 -1e-5,0.29297 -0.0855,0.568849 -0.25635,0.827637 -0.1709,0.258789 -0.41749,0.458985 -0.73975,0.600586 -0.32227,0.141601 -0.68685,0.212402 -1.09375,0.212402 -0.67383,0 -1.18734,-0.139974 -1.54053,-0.419922 -0.35319,-0.279947 -0.57861,-0.694986 -0.67627,-1.245117 z"
         style="font-size:10px;fill:#b3b3b3;font-family:Arial;-inkscape-font-specification:Arial"
         id="path3072" />
      <path
         d="m 34.901367,36.123925 0.126953,0.776368 c -0.247398,0.05208 -0.468752,0.07813 -0.664062,0.07813 -0.319012,0 -0.566408,-0.05046 -0.742188,-0.151368 -0.175782,-0.100911 -0.29948,-0.23356 -0.371093,-0.397949 -0.07162,-0.164387 -0.107423,-0.510253 -0.107422,-1.037597 l 0,-2.983399 -0.644532,0 0,-0.683594 0.644532,0 0,-1.284179 0.874023,-0.527344 0,1.811523 0.883789,0 0,0.683594 -0.883789,0 0,3.032227 c -2e-6,0.250652 0.01546,0.411785 0.04639,0.483398 0.03092,0.07162 0.08138,0.128582 0.151367,0.170899 0.06999,0.04232 0.170083,0.06348 0.300293,0.06348 0.09765,10e-7 0.226235,-0.01139 0.385742,-0.03418 z"
         style="font-size:10px;fill:#b3b3b3;font-family:Arial;-inkscape-font-specification:Arial"
         id="path3074" />
      <path
         d="m 35.428711,34.317285 c 0,-0.960283 0.266926,-1.671545 0.800781,-2.133789 0.445962,-0.38411 0.989581,-0.576167 1.63086,-0.576172 0.712887,5e-6 1.295568,0.233566 1.748046,0.700683 0.452469,0.467127 0.678706,1.112471 0.678711,1.936036 -5e-6,0.667319 -0.100102,1.192221 -0.300293,1.574707 -0.2002,0.382487 -0.49154,0.679525 -0.874023,0.891113 -0.382491,0.211588 -0.799971,0.317383 -1.252441,0.317383 -0.725914,0 -1.312665,-0.232748 -1.760254,-0.698242 -0.447592,-0.465494 -0.671387,-1.136066 -0.671387,-2.011719 z m 0.90332,0 c -10e-7,0.664064 0.144856,1.161297 0.434571,1.491699 0.289711,0.330404 0.654294,0.495606 1.09375,0.495605 0.436194,10e-7 0.79915,-0.166014 1.088867,-0.498046 0.289709,-0.33203 0.434566,-0.838215 0.43457,-1.518555 -4e-6,-0.641273 -0.145675,-1.127112 -0.437012,-1.45752 -0.291344,-0.330399 -0.653486,-0.4956 -1.086425,-0.495605 -0.439456,5e-6 -0.804039,0.164392 -1.09375,0.493164 -0.289715,0.32878 -0.434572,0.825199 -0.434571,1.489258 z"
         style="font-size:10px;fill:#b3b3b3;font-family:Arial;-inkscape-font-specification:Arial"
         id="path3076" />
      <path
         d="m 44.90625,36.910058 -0.81543,0 0,-7.158203 0.878907,0 0,2.553711 c 0.371091,-0.46549 0.844724,-0.698237 1.420898,-0.698242 0.319007,5e-6 0.620927,0.0643 0.905762,0.192871 0.284826,0.128586 0.519201,0.30925 0.703125,0.541992 0.183914,0.232752 0.327957,0.513513 0.432129,0.842285 0.104161,0.32878 0.156244,0.680342 0.15625,1.054688 -6e-6,0.888673 -0.219732,1.575522 -0.65918,2.060547 -0.439457,0.485026 -0.9668,0.727539 -1.582031,0.727539 -0.611982,0 -1.092125,-0.255534 -1.44043,-0.766602 z m -0.0098,-2.631836 c -10e-7,0.621747 0.08463,1.070965 0.253907,1.347657 0.27669,0.452474 0.651039,0.678711 1.123046,0.67871 0.384112,10e-7 0.716143,-0.166828 0.996094,-0.500488 0.279944,-0.333657 0.419918,-0.83089 0.419922,-1.491699 -4e-6,-0.67708 -0.134281,-1.176754 -0.402832,-1.499023 -0.268558,-0.322262 -0.593265,-0.483394 -0.974121,-0.483399 -0.384117,5e-6 -0.716148,0.166834 -0.996094,0.500488 -0.279949,0.333663 -0.419923,0.816247 -0.419922,1.447754 z"
         style="font-size:10px;fill:#b3b3b3;font-family:Arial;-inkscape-font-specification:Arial"
         id="path3078" />
      <path
         d="m 53.211914,35.240136 0.908203,0.112305 c -0.143234,0.5306 -0.408533,0.942383 -0.795898,1.235352 -0.387374,0.292968 -0.882165,0.439453 -1.484375,0.439453 -0.758466,0 -1.359865,-0.233561 -1.804199,-0.700684 -0.444337,-0.467121 -0.666505,-1.122231 -0.666504,-1.965332 -10e-7,-0.872392 0.224608,-1.549475 0.673828,-2.03125 0.449217,-0.481766 1.031899,-0.722651 1.748047,-0.722656 0.693356,5e-6 1.259761,0.236008 1.699218,0.708008 0.439449,0.472009 0.659175,1.136071 0.65918,1.992187 -5e-6,0.05209 -0.0016,0.130211 -0.0049,0.234375 l -3.867187,0 c 0.03255,0.569663 0.193683,1.005861 0.483398,1.308594 0.289712,0.302735 0.651039,0.454102 1.083985,0.454101 0.322262,10e-7 0.597327,-0.08463 0.825195,-0.253906 0.227861,-0.16927 0.408524,-0.439452 0.541992,-0.810547 z m -2.885742,-1.420898 2.895508,0 c -0.03907,-0.436194 -0.149744,-0.763343 -0.332032,-0.981445 -0.279951,-0.338538 -0.642906,-0.507808 -1.088867,-0.507813 -0.403648,5e-6 -0.743003,0.135096 -1.018066,0.405274 -0.275067,0.270186 -0.427248,0.631514 -0.456543,1.083984 z"
         style="font-size:10px;fill:#b3b3b3;font-family:Arial;-inkscape-font-specification:Arial"
         id="path3080" />
      <path
         d="m 55.067383,37.339746 0.854492,0.126953 c 0.03581,0.263671 0.13509,0.455728 0.297852,0.576172 0.218097,0.162759 0.515948,0.244139 0.893554,0.24414 0.406898,-10e-7 0.721026,-0.08138 0.942383,-0.24414 0.221351,-0.162762 0.37109,-0.390626 0.449219,-0.683594 0.04557,-0.179037 0.06673,-0.555013 0.06348,-1.12793 -0.384118,0.452474 -0.862633,0.678711 -1.435547,0.678711 -0.712892,0 -1.264649,-0.257161 -1.655273,-0.771484 -0.390625,-0.514322 -0.585938,-1.131183 -0.585937,-1.850586 -10e-7,-0.494789 0.08952,-0.951331 0.268554,-1.369629 0.179036,-0.41829 0.438639,-0.741369 0.778809,-0.969238 0.340167,-0.22786 0.739744,-0.341792 1.19873,-0.341797 0.611976,5e-6 1.116533,0.247401 1.513672,0.742187 l 0,-0.625 0.810547,0 0,4.482422 c -5e-6,0.807292 -0.0822,1.379394 -0.246582,1.716309 -0.164392,0.336913 -0.424809,0.603026 -0.78125,0.79834 -0.356449,0.19531 -0.795088,0.292966 -1.315918,0.292968 -0.618491,-2e-6 -1.118165,-0.139162 -1.499023,-0.41748 -0.38086,-0.278322 -0.56478,-0.697429 -0.551758,-1.257324 z m 0.727539,-3.115235 c -10e-7,0.680341 0.13509,1.17676 0.405273,1.489258 0.270181,0.312501 0.608722,0.468751 1.015625,0.46875 0.403643,10e-7 0.742184,-0.155435 1.015625,-0.466308 0.273434,-0.310871 0.410152,-0.798338 0.410157,-1.462403 -5e-6,-0.634762 -0.140792,-1.113277 -0.422364,-1.435547 -0.281579,-0.322261 -0.620934,-0.483393 -1.018066,-0.483398 -0.390627,5e-6 -0.722658,0.158696 -0.996094,0.476074 -0.273439,0.317387 -0.410157,0.788578 -0.410156,1.413574 z"
         style="font-size:10px;fill:#b3b3b3;font-family:Arial;-inkscape-font-specification:Arial"
         id="path3082" />
      <path
         d="m 60.799805,30.762597 0,-1.010742 0.878906,0 0,1.010742 z m 0,6.147461 0,-5.185547 0.878906,0 0,5.185547 z"
         style="font-size:10px;fill:#b3b3b3;font-family:Arial;-inkscape-font-specification:Arial"
         id="path3084" />
      <path
         d="m 63.021484,36.910058 0,-5.185547 0.791016,0 0,0.737305 c 0.380858,-0.569656 0.930987,-0.854487 1.650391,-0.854492 0.312496,5e-6 0.599768,0.05616 0.861816,0.168457 0.26204,0.11231 0.458166,0.259608 0.588379,0.441894 0.130204,0.182297 0.221349,0.398768 0.273437,0.649414 0.03255,0.162765 0.04882,0.447595 0.04883,0.854493 l 0,3.188476 -0.878907,0 0,-3.154297 c -4e-6,-0.358069 -0.03418,-0.62581 -0.102539,-0.803222 -0.06836,-0.177405 -0.189619,-0.319006 -0.363769,-0.424805 -0.174157,-0.10579 -0.378421,-0.158687 -0.612793,-0.158691 -0.374352,4e-6 -0.697431,0.118819 -0.969239,0.356445 -0.271811,0.237634 -0.407716,0.68848 -0.407714,1.352539 l 0,2.832031 z"
         style="font-size:10px;fill:#b3b3b3;font-family:Arial;-inkscape-font-specification:Arial"
         id="path3086" />
      <path
         d="m 75.442871,36.910058 0,-0.83789 c -0.444014,0.644531 -1.047367,0.966796 -1.810059,0.966796 -0.33659,0 -0.650799,-0.06445 -0.942626,-0.193359 -0.291831,-0.128906 -0.508465,-0.290934 -0.649903,-0.486084 -0.14144,-0.195149 -0.240805,-0.434162 -0.298096,-0.717041 -0.03939,-0.189777 -0.05908,-0.490558 -0.05908,-0.902344 l 0,-3.534179 0.966797,0 0,3.163574 c -10e-7,0.504885 0.01969,0.845054 0.05908,1.020508 0.06087,0.254233 0.189777,0.453858 0.386719,0.598877 0.196938,0.14502 0.440427,0.21753 0.730469,0.217529 0.290036,10e-7 0.562171,-0.0743 0.816406,-0.2229 0.254228,-0.1486 0.434159,-0.350911 0.539795,-0.606934 0.105627,-0.25602 0.158443,-0.627521 0.158447,-1.114502 l 0,-3.056152 0.966797,0 0,5.704101 z"
         style="font-size:11px;font-variant:normal;font-stretch:normal;text-align:center;text-anchor:middle;fill:#b3b3b3;font-family:Arial;-inkscape-font-specification:Arial"
         id="path3088" />
      <path
         d="m 77.827637,39.096093 0,-7.890136 0.880859,0 0,0.741211 c 0.207681,-0.290034 0.442218,-0.507563 0.703613,-0.652588 0.261391,-0.145014 0.578285,-0.217524 0.950684,-0.21753 0.486975,6e-6 0.916662,0.125332 1.289062,0.375977 0.372391,0.250656 0.653478,0.604253 0.843262,1.060791 0.189773,0.456547 0.284662,0.956953 0.284668,1.501221 -6e-6,0.583661 -0.104742,1.109132 -0.314209,1.576416 -0.209478,0.467286 -0.513839,0.825358 -0.913086,1.074218 -0.399255,0.248861 -0.819095,0.373291 -1.259521,0.373291 -0.322269,0 -0.611412,-0.06803 -0.867432,-0.204101 -0.256024,-0.136068 -0.466392,-0.307942 -0.631103,-0.515625 l 0,2.776855 z m 0.875488,-5.005859 c -2e-6,0.734052 0.148599,1.276532 0.445801,1.627441 0.297198,0.350913 0.657061,0.526368 1.07959,0.526368 0.429684,0 0.797603,-0.181722 1.103759,-0.545166 0.306148,-0.363443 0.459224,-0.926512 0.459229,-1.689209 -5e-6,-0.726885 -0.1495,-1.271155 -0.448486,-1.632813 -0.298995,-0.361649 -0.656173,-0.542475 -1.071534,-0.54248 -0.411786,5e-6 -0.776125,0.192469 -1.093017,0.577392 -0.316896,0.384933 -0.475344,0.944421 -0.475342,1.678467 z"
         style="font-size:11px;font-variant:normal;font-stretch:normal;text-align:center;text-anchor:middle;fill:#b3b3b3;font-family:Arial;-inkscape-font-specification:Arial"
         id="path3090" />
      <path
         d="m 83.929199,36.910058 0,-7.874023 0.966797,0 0,7.874023 z"
         style="font-size:11px;font-variant:normal;font-stretch:normal;text-align:center;text-anchor:middle;fill:#b3b3b3;font-family:Arial;-inkscape-font-specification:Arial"
         id="path3092" />
      <path
         d="m 86.040039,34.058007 c 0,-1.056311 0.293619,-1.838699 0.880859,-2.347168 0.490559,-0.42252 1.08854,-0.633783 1.793946,-0.633789 0.784176,6e-6 1.425125,0.256923 1.922851,0.770752 0.497716,0.51384 0.746577,1.223718 0.746582,2.129639 -5e-6,0.734052 -0.110113,1.311444 -0.330322,1.732178 -0.22022,0.420736 -0.540695,0.747477 -0.961426,0.980224 -0.420739,0.232748 -0.879967,0.349121 -1.377685,0.349121 -0.798505,0 -1.443931,-0.256022 -1.93628,-0.768066 -0.49235,-0.512043 -0.738525,-1.249673 -0.738525,-2.212891 z m 0.993652,0 c -10e-7,0.730471 0.159341,1.277427 0.478028,1.64087 0.318682,0.363444 0.719724,0.545166 1.203125,0.545166 0.479814,0 0.879065,-0.182617 1.197754,-0.547852 0.31868,-0.365233 0.478022,-0.922036 0.478027,-1.67041 -5e-6,-0.7054 -0.160242,-1.239823 -0.480713,-1.603272 -0.320479,-0.363439 -0.718835,-0.545161 -1.195068,-0.545166 -0.483401,5e-6 -0.884443,0.180832 -1.203125,0.542481 -0.318687,0.361658 -0.478029,0.907718 -0.478028,1.638183 z"
         style="font-size:11px;font-variant:normal;font-stretch:normal;text-align:center;text-anchor:middle;fill:#b3b3b3;font-family:Arial;-inkscape-font-specification:Arial"
         id="path3094" />
      <path
         d="m 96.245117,36.206445 c -0.358077,0.304362 -0.702722,0.519206 -1.033935,0.644531 -0.331221,0.125326 -0.686608,0.187988 -1.066162,0.187988 -0.62663,0 -1.108237,-0.153076 -1.444825,-0.459228 -0.336589,-0.306152 -0.504883,-0.697346 -0.504883,-1.173584 0,-0.279295 0.06356,-0.534422 0.190674,-0.765381 0.127115,-0.230954 0.293619,-0.416257 0.499512,-0.555908 0.205891,-0.139646 0.437743,-0.245277 0.695557,-0.316895 0.189776,-0.05013 0.476234,-0.09847 0.859375,-0.145019 0.780595,-0.0931 1.355302,-0.204098 1.724121,-0.333008 0.0036,-0.132483 0.0054,-0.21663 0.0054,-0.252441 -4e-6,-0.393876 -0.09131,-0.671383 -0.273926,-0.83252 -0.247074,-0.218419 -0.614098,-0.327632 -1.101074,-0.327637 -0.454755,5e-6 -0.790448,0.07968 -1.00708,0.239014 -0.216636,0.159347 -0.376874,0.441329 -0.480713,0.845947 l -0.945313,-0.128906 c 0.08594,-0.404618 0.227376,-0.731359 0.424317,-0.980225 0.196939,-0.248855 0.481606,-0.440424 0.854004,-0.574707 0.372393,-0.134271 0.803871,-0.20141 1.294433,-0.201416 0.486976,6e-6 0.882646,0.0573 1.187012,0.171875 0.304357,0.114589 0.528153,0.258714 0.671387,0.432373 0.143224,0.173671 0.243484,0.39299 0.300781,0.657959 0.03222,0.164718 0.04833,0.461919 0.04834,0.891602 l 0,1.289063 c -6e-6,0.898764 0.02058,1.467204 0.06177,1.705322 0.04117,0.238119 0.122635,0.46639 0.244385,0.684814 l -1.009765,0 C 96.338212,36.709538 96.273759,36.475 96.245117,36.206445 z m -0.08057,-2.15918 c -0.350916,0.143232 -0.877282,0.264977 -1.579102,0.365235 -0.397463,0.05729 -0.67855,0.121747 -0.843262,0.193359 -0.164715,0.07162 -0.291831,0.176353 -0.381347,0.314209 -0.08952,0.13786 -0.134279,0.290936 -0.134278,0.459229 -10e-7,0.257813 0.09757,0.472657 0.292725,0.644531 0.195148,0.171875 0.480711,0.257813 0.85669,0.257812 0.372392,10e-7 0.70361,-0.08146 0.993652,-0.244384 0.290035,-0.162923 0.503088,-0.385823 0.63916,-0.668702 0.103837,-0.218422 0.155757,-0.540688 0.155762,-0.966797 z"
         style="font-size:11px;font-variant:normal;font-stretch:normal;text-align:center;text-anchor:middle;fill:#b3b3b3;font-family:Arial;-inkscape-font-specification:Arial"
         id="path3096" />
      <path
         d="m 102.34668,36.910058 0,-0.719726 c -0.36166,0.565755 -0.8934,0.848632 -1.59522,0.848632 -0.45475,0 -0.8728,-0.125325 -1.254146,-0.375976 -0.381348,-0.250651 -0.676758,-0.600667 -0.88623,-1.050049 -0.209473,-0.44938 -0.314209,-0.965899 -0.314209,-1.54956 0,-0.569333 0.09489,-1.085853 0.284668,-1.549561 0.189778,-0.4637 0.474445,-0.819087 0.854004,-1.066162 0.379555,-0.247065 0.803873,-0.3706 1.272953,-0.370606 0.34374,6e-6 0.6499,0.07252 0.91845,0.21753 0.26855,0.145025 0.48698,0.333908 0.65528,0.56665 l 0,-2.825195 0.96142,0 0,7.874023 z m -3.056153,-2.846679 c -10e-7,0.73047 0.15397,1.276531 0.461914,1.638183 0.307939,0.361655 0.671389,0.542481 1.090329,0.542481 0.42253,0 0.78149,-0.17277 1.07691,-0.518311 0.2954,-0.345539 0.44311,-0.872801 0.44311,-1.581787 0,-0.780595 -0.15039,-1.353512 -0.45117,-1.71875 -0.30078,-0.36523 -0.67139,-0.547847 -1.11182,-0.547852 -0.42969,5e-6 -0.78865,0.175461 -1.0769,0.526368 -0.28825,0.350915 -0.432374,0.904137 -0.432373,1.659668 z"
         style="font-size:11px;font-variant:normal;font-stretch:normal;text-align:center;text-anchor:middle;fill:#b3b3b3;font-family:Arial;-inkscape-font-specification:Arial"
         id="path3098" />
      <path
         d="m 104.77441,30.147851 0,-1.111816 0.9668,0 0,1.111816 z m 0,6.762207 0,-5.704101 0.9668,0 0,5.704101 z"
         style="font-size:11px;font-variant:normal;font-stretch:normal;text-align:center;text-anchor:middle;fill:#b3b3b3;font-family:Arial;-inkscape-font-specification:Arial"
         id="path3100" />
      <path
         d="m 107.21826,36.910058 0,-5.704101 0.87012,0 0,0.811035 c 0.41894,-0.626622 1.02408,-0.939936 1.81543,-0.939942 0.34374,6e-6 0.65974,0.06177 0.948,0.185303 0.28824,0.123541 0.50398,0.285569 0.64721,0.486084 0.14323,0.200526 0.24349,0.438644 0.30078,0.714356 0.0358,0.17904 0.0537,0.492354 0.0537,0.939941 l 0,3.507324 -0.9668,0 0,-3.469726 c -1e-5,-0.393877 -0.0376,-0.688391 -0.11279,-0.883545 -0.0752,-0.195145 -0.20859,-0.350907 -0.40015,-0.467285 -0.19157,-0.116369 -0.41626,-0.174556 -0.67407,-0.174561 -0.41179,5e-6 -0.76718,0.130702 -1.06617,0.39209 -0.29899,0.261397 -0.44848,0.757328 -0.44848,1.487793 l 0,3.115234 z"
         style="font-size:11px;font-variant:normal;font-stretch:normal;text-align:center;text-anchor:middle;fill:#b3b3b3;font-family:Arial;-inkscape-font-specification:Arial"
         id="path3102" />
      <path
         d="m 113.16406,37.382714 0.93994,0.139649 c 0.0394,0.290038 0.1486,0.501301 0.32764,0.633789 0.23991,0.179035 0.56754,0.268553 0.98291,0.268555 0.44759,-2e-6 0.79313,-0.08952 1.03662,-0.268555 0.24349,-0.179038 0.4082,-0.429688 0.49414,-0.751953 0.0501,-0.196941 0.0734,-0.610514 0.0698,-1.240723 -0.42253,0.497722 -0.9489,0.746582 -1.5791,0.746582 -0.78419,0 -1.39112,-0.282877 -1.82081,-0.848633 -0.42968,-0.565753 -0.64453,-1.244301 -0.64453,-2.035644 0,-0.544268 0.0985,-1.046464 0.29541,-1.506592 0.19694,-0.460119 0.48251,-0.815506 0.85669,-1.066162 0.37419,-0.250645 0.81372,-0.375971 1.31861,-0.375977 0.67317,6e-6 1.22818,0.272141 1.66504,0.816407 l 0,-0.6875 0.8916,0 0,4.930664 c -1e-5,0.88802 -0.0904,1.517333 -0.27124,1.887939 -0.18084,0.370604 -0.46729,0.663328 -0.85938,0.878174 -0.39209,0.214842 -0.87459,0.322263 -1.44751,0.322266 -0.68034,-3e-6 -1.22998,-0.153079 -1.64892,-0.459229 -0.41895,-0.306154 -0.62126,-0.767172 -0.60694,-1.383057 z m 0.8003,-3.426757 c -1e-5,0.748374 0.14859,1.294435 0.4458,1.638183 0.29719,0.343751 0.66959,0.515626 1.11718,0.515625 0.44401,10e-7 0.81641,-0.170979 1.11719,-0.512939 0.30078,-0.341958 0.45117,-0.878172 0.45117,-1.608643 0,-0.698238 -0.15487,-1.224605 -0.4646,-1.579101 -0.30973,-0.354488 -0.68302,-0.531734 -1.11987,-0.531739 -0.42969,5e-6 -0.79492,0.174566 -1.0957,0.523682 -0.30079,0.349125 -0.45118,0.867435 -0.45117,1.554932 z"
         style="font-size:11px;font-variant:normal;font-stretch:normal;text-align:center;text-anchor:middle;fill:#b3b3b3;font-family:Arial;-inkscape-font-specification:Arial"
         id="path3104" />
    </g>
    <path
       style="fill:#b3b3b3;fill-opacity:1;fill-rule:nonzero;stroke:none"
       d="m 51.828125,1002.0184 c -6.543483,0 -12.006911,4.5298 -13.46875,10.625 -0.261096,-0.024 -0.513988,-0.031 -0.78125,-0.031 -4.788596,0 -8.6875,3.8676 -8.6875,8.6562 0,4.7886 3.898904,8.6875 8.6875,8.6875 0.267262,0 0.520154,-0.01 0.78125,-0.031 l 0,0.031 8.75,0 0,-7.8125 -3.84375,0 6.75,-8.4687 6.71875,8.4687 -3.84375,0 0,7.8125 10.6875,0 0.1875,0 c 4.064211,-0.099 7.34375,-3.4433 7.34375,-7.5312 0,-3.4275 -2.300531,-6.2845 -5.4375,-7.1875 -0.340617,-7.3589 -6.400645,-13.2188 -13.84375,-13.2188 z"
       id="path3003"
       inkscape:connector-curvature="0" />
  </g>
</svg>
