<?xml version="1.0" encoding="UTF-8" standalone="no"?>
<!-- Created with Inkscape (http://www.inkscape.org/) -->

<svg
   xmlns:dc="http://purl.org/dc/elements/1.1/"
   xmlns:cc="http://creativecommons.org/ns#"
   xmlns:rdf="http://www.w3.org/1999/02/22-rdf-syntax-ns#"
   xmlns:svg="http://www.w3.org/2000/svg"
   xmlns="http://www.w3.org/2000/svg"
   xmlns:sodipodi="http://sodipodi.sourceforge.net/DTD/sodipodi-0.dtd"
   xmlns:inkscape="http://www.inkscape.org/namespaces/inkscape"
   width="100"
   height="100"
   id="svg3045"
   version="1.1"
   inkscape:version="0.48.4 r9939"
   sodipodi:docname="key_icon.svg">
  <defs
     id="defs3047" />
  <sodipodi:namedview
     id="base"
     pagecolor="#ffffff"
     bordercolor="#666666"
     borderopacity="1.0"
     inkscape:pageopacity="0.0"
     inkscape:pageshadow="2"
     inkscape:zoom="7.3397684"
     inkscape:cx="3.0531686"
     inkscape:cy="50.147259"
     inkscape:document-units="px"
     inkscape:current-layer="layer1"
     showgrid="false"
     inkscape:window-width="1366"
     inkscape:window-height="706"
     inkscape:window-x="-8"
     inkscape:window-y="-8"
     inkscape:window-maximized="1" />
  <metadata
     id="metadata3050">
    <rdf:RDF>
      <cc:Work
         rdf:about="">
        <dc:format>image/svg+xml</dc:format>
        <dc:type
           rdf:resource="http://purl.org/dc/dcmitype/StillImage" />
        <dc:title />
      </cc:Work>
    </rdf:RDF>
  </metadata>
  <g
     inkscape:label="1. réteg"
     inkscape:groupmode="layer"
     id="layer1"
     transform="translate(0,-952.36218)">
    <path
       style="fill:#ffffff;fill-opacity:1;fill-rule:nonzero;stroke:none"
       d="m 57.930359,974.13452 c -10.930033,0 -19.812676,8.5654 -19.812676,19.11851 0,10.55317 8.882643,19.08957 19.812676,19.08957 10.930034,0 19.783753,-8.5364 19.783753,-19.08957 0,-10.55311 -8.853719,-19.11851 -19.783753,-19.11851 z m 5.553334,7.11521 c 3.551841,0 6.421043,2.8692 6.421043,6.42104 0,3.55184 -2.869202,6.44997 -6.421043,6.44997 -3.55184,0 -6.449966,-2.89813 -6.449966,-6.44997 0,-3.55184 2.898126,-6.42104 6.449966,-6.42104 z"
       id="path3080"
       inkscape:connector-curvature="0" />
    <path
       style="fill:#ffffff;fill-opacity:1;fill-rule:nonzero;stroke:#ffffff;stroke-width:2.50000000000000000;stroke-linejoin:round;stroke-miterlimit:4;stroke-opacity:1;stroke-dasharray:none"
       d="m 53.262516,989.83032 -32.003063,33.62328 -0.39982,7.8649 8.454233,0.01 1.041446,-5.354 6.729756,-0.2641 1.305366,-6.2226 6.181617,-0.1061 1.09112,-5.5056 5.117834,-9.7779 8.115204,-7.59796 c -2.010892,-1.88646 -3.465911,-2.24325 -4.135008,-3.12337 z"
       id="rect3082"
       inkscape:connector-curvature="0"
       sodipodi:nodetypes="ccccccccccccc" />
  </g>
</svg>
