<?xml version="1.0" encoding="UTF-8" standalone="no"?>
<!-- Created with Inkscape (http://www.inkscape.org/) -->

<svg
   xmlns:dc="http://purl.org/dc/elements/1.1/"
   xmlns:cc="http://creativecommons.org/ns#"
   xmlns:rdf="http://www.w3.org/1999/02/22-rdf-syntax-ns#"
   xmlns:svg="http://www.w3.org/2000/svg"
   xmlns="http://www.w3.org/2000/svg"
   xmlns:sodipodi="http://sodipodi.sourceforge.net/DTD/sodipodi-0.dtd"
   xmlns:inkscape="http://www.inkscape.org/namespaces/inkscape"
   width="100"
   height="100"
   id="svg3045"
   version="1.1"
   inkscape:version="0.48.4 r9939"
   sodipodi:docname="profil_icon.svg">
  <defs
     id="defs3047" />
  <sodipodi:namedview
     id="base"
     pagecolor="#ffffff"
     bordercolor="#666666"
     borderopacity="1.0"
     inkscape:pageopacity="0.0"
     inkscape:pageshadow="2"
     inkscape:zoom="5.19"
     inkscape:cx="18.208092"
     inkscape:cy="50"
     inkscape:document-units="px"
     inkscape:current-layer="layer1"
     showgrid="false"
     inkscape:window-width="1366"
     inkscape:window-height="706"
     inkscape:window-x="-8"
     inkscape:window-y="-8"
     inkscape:window-maximized="1" />
  <metadata
     id="metadata3050">
    <rdf:RDF>
      <cc:Work
         rdf:about="">
        <dc:format>image/svg+xml</dc:format>
        <dc:type
           rdf:resource="http://purl.org/dc/dcmitype/StillImage" />
        <dc:title />
      </cc:Work>
    </rdf:RDF>
  </metadata>
  <g
     inkscape:label="1. réteg"
     inkscape:groupmode="layer"
     id="layer1"
     transform="translate(0,-952.36218)">
    <path
       style="fill:#ffffff;fill-opacity:1;fill-rule:nonzero;stroke:none"
       d="m 33.382797,1014.9222 c -7.719767,0 -13.918683,7.5037 -13.918683,16.7952 0,0.4502 0.04235,0.8836 0.07101,1.3247 l 60.929746,0 c 0.02867,-0.4411 0.07101,-0.8745 0.07101,-1.3247 0,-9.2915 -6.198916,-16.7952 -13.918683,-16.7952 l -33.234406,0 z"
       id="rect2999"
       inkscape:connector-curvature="0" />
    <path
       sodipodi:type="arc"
       style="fill:#ffffff;fill-opacity:1;fill-rule:nonzero;stroke:none"
       id="path3771"
       sodipodi:cx="34.104046"
       sodipodi:cy="30.635838"
       sodipodi:rx="13.487476"
       sodipodi:ry="13.487476"
       d="m 47.591522,30.635838 c 0,7.448927 -6.038549,13.487476 -13.487476,13.487476 -7.448928,0 -13.487476,-6.038549 -13.487476,-13.487476 0,-7.448928 6.038548,-13.487477 13.487476,-13.487477 7.448927,0 13.487476,6.038549 13.487476,13.487477 z"
       transform="matrix(1.1428571,0,0,1.1428571,11.023948,956.69855)" />
  </g>
</svg>
