<?xml version="1.0" encoding="UTF-8" standalone="no"?>
<!-- Created with Inkscape (http://www.inkscape.org/) -->

<svg
   xmlns:dc="http://purl.org/dc/elements/1.1/"
   xmlns:cc="http://creativecommons.org/ns#"
   xmlns:rdf="http://www.w3.org/1999/02/22-rdf-syntax-ns#"
   xmlns:svg="http://www.w3.org/2000/svg"
   xmlns="http://www.w3.org/2000/svg"
   xmlns:sodipodi="http://sodipodi.sourceforge.net/DTD/sodipodi-0.dtd"
   xmlns:inkscape="http://www.inkscape.org/namespaces/inkscape"
   width="100"
   height="100"
   id="svg2"
   version="1.1"
   inkscape:version="0.48.4 r9939"
   sodipodi:docname="search_icon.svg">
  <defs
     id="defs4" />
  <sodipodi:namedview
     id="base"
     pagecolor="#ffffff"
     bordercolor="#666666"
     borderopacity="1.0"
     inkscape:pageopacity="0.0"
     inkscape:pageshadow="2"
     inkscape:zoom="5.19"
     inkscape:cx="50"
     inkscape:cy="50"
     inkscape:document-units="px"
     inkscape:current-layer="g3011"
     showgrid="false"
     inkscape:window-width="1366"
     inkscape:window-height="706"
     inkscape:window-x="-8"
     inkscape:window-y="-8"
     inkscape:window-maximized="1" />
  <metadata
     id="metadata7">
    <rdf:RDF>
      <cc:Work
         rdf:about="">
        <dc:format>image/svg+xml</dc:format>
        <dc:type
           rdf:resource="http://purl.org/dc/dcmitype/StillImage" />
        <dc:title />
      </cc:Work>
    </rdf:RDF>
  </metadata>
  <g
     inkscape:label="1. réteg"
     inkscape:groupmode="layer"
     id="layer1"
     transform="translate(0,-952.36218)">
    <g
       id="g3011"
       transform="matrix(0.60020057,0,0,0.60020057,20.438335,401.18992)">
      <path
         style="fill:#ffffff;fill-opacity:1;fill-rule:nonzero;stroke:none"
         d="m 39.659224,956.03477 c -19.766205,0 -35.7884179,16.02222 -35.7884179,35.78842 0,19.76621 16.0222129,35.78841 35.7884179,35.78841 19.766205,0 35.788418,-16.0222 35.788418,-35.78841 0,-19.7662 -16.022213,-35.78842 -35.788418,-35.78842 z m 0,16.00415 c 10.997537,0 19.931547,8.93401 19.931547,19.93155 0,10.99753 -8.93401,19.93153 -19.931547,19.93153 -10.997537,0 -19.882454,-8.934 -19.882454,-19.93153 0,-10.99754 8.884917,-19.93155 19.882454,-19.93155 z"
         id="path2985"
         inkscape:connector-curvature="0" />
      <path
         style="fill:#ffffff;fill-opacity:1;fill-rule:nonzero;stroke:none"
         d="m 54.844564,1009.3987 0.79758,-0.8263 c 2.678411,-2.7753 7.064108,-2.8483 9.844211,-0.1749 l 31.445511,30.2382 c 2.780103,2.6734 2.853271,7.069 0.174864,9.8443 l -0.79758,0.8263 c -2.678411,2.7753 -7.064105,2.8483 -9.844212,0.1749 l -31.44551,-30.2382 c -2.780104,-2.6734 -2.853275,-7.069 -0.174864,-9.8443 z"
         id="rect3007"
         inkscape:connector-curvature="0"
         sodipodi:nodetypes="ccssccssc" />
    </g>
  </g>
</svg>
