<?xml version="1.0" encoding="UTF-8" standalone="no"?>
<!-- Created with Inkscape (http://www.inkscape.org/) -->

<svg
   xmlns:dc="http://purl.org/dc/elements/1.1/"
   xmlns:cc="http://creativecommons.org/ns#"
   xmlns:rdf="http://www.w3.org/1999/02/22-rdf-syntax-ns#"
   xmlns:svg="http://www.w3.org/2000/svg"
   xmlns="http://www.w3.org/2000/svg"
   xmlns:sodipodi="http://sodipodi.sourceforge.net/DTD/sodipodi-0.dtd"
   xmlns:inkscape="http://www.inkscape.org/namespaces/inkscape"
   width="1440.5089"
   height="200.27451"
   id="svg2"
   version="1.1"
   inkscape:version="0.48.4 r9939"
   sodipodi:docname="mplogo.svg"
   inkscape:export-filename="C:\Users\henczidai.balint\Desktop\mplogo.png"
   inkscape:export-xdpi="90"
   inkscape:export-ydpi="90">
  <defs
     id="defs4" />
  <sodipodi:namedview
     id="base"
     pagecolor="#ffffff"
     bordercolor="#666666"
     borderopacity="1.0"
     inkscape:pageopacity="0.0"
     inkscape:pageshadow="2"
     inkscape:zoom="0.69999999"
     inkscape:cx="544.59869"
     inkscape:cy="291.63891"
     inkscape:document-units="px"
     inkscape:current-layer="layer1"
     showgrid="false"
     inkscape:window-width="1680"
     inkscape:window-height="988"
     inkscape:window-x="-8"
     inkscape:window-y="-8"
     inkscape:window-maximized="1"
     fit-margin-top="0"
     fit-margin-left="0"
     fit-margin-right="0"
     fit-margin-bottom="0" />
  <metadata
     id="metadata7">
    <rdf:RDF>
      <cc:Work
         rdf:about="">
        <dc:format>image/svg+xml</dc:format>
        <dc:type
           rdf:resource="http://purl.org/dc/dcmitype/StillImage" />
        <dc:title></dc:title>
      </cc:Work>
    </rdf:RDF>
  </metadata>
  <g
     inkscape:label="Layer 1"
     inkscape:groupmode="layer"
     id="layer1"
     transform="translate(228.664,-329.64591)">
    <g
       id="g3017"
       transform="matrix(0.12401192,0,0,0.12401192,25.490681,374.0398)">
      <path
         id="path2993"
         d="m -1291.4375,-45.375 0,253.25 408.59375,235.90625 -408.59375,235.90625 0,264.6875 L -862.84375,696.9375 -434.28125,449.5 -862.84375,202.0625 -1291.4375,-45.375 z"
         style="fill:#00b5e3;fill-opacity:1"
         inkscape:connector-curvature="0" />
      <path
         inkscape:connector-curvature="0"
         style="fill:#999999;fill-opacity:1"
         d="m -2049.4375,-45.375 0,253.25 408.5938,235.90625 -408.5938,235.90625 0,264.6875 428.5938,-247.4375 L -1192.2812,449.5 -1620.8437,202.0625 -2049.4375,-45.375 z"
         id="path3774" />
    </g>
    <g
       id="g3011"
       transform="matrix(0.16891893,0,0,0.16891893,61.258872,355.43126)">
      <g
         style="font-size:40px;font-style:normal;font-weight:normal;line-height:125%;letter-spacing:0px;word-spacing:0px;fill:#999999;fill-opacity:1;stroke:none;font-family:Sans"
         id="text3776">
        <path
           d="m -279.27994,791.60071 0,-663.75 100.625,0 0,93.125 c 20.83313,-32.4994 48.54144,-58.64521 83.125002,-78.4375 34.583031,-19.791 73.957992,-29.68682 118.125,-29.6875 49.166232,6.8e-4 89.478688,10.209 120.937498,30.625 31.4578,20.41729 53.64527,48.95893 66.5625,85.625 52.49938,-77.49936 120.83264,-116.24932 205,-116.25 65.83249,6.8e-4 116.45744,18.22983 151.875,54.6875 35.4157,36.45892 53.12402,92.6047 53.125,168.4375 l 0,455.625 -111.875,0 0,-418.125 c -8.7e-4,-44.99954 -3.6467,-77.39534 -10.9375,-97.1875 -7.29252,-19.79113 -20.52167,-35.72862 -39.6875,-47.8125 -19.16747,-12.08276 -41.66744,-18.12442 -67.5,-18.125 -46.66737,5.8e-4 -85.41733,15.5214 -116.25,46.5625 -30.83394,31.04217 -46.25059,80.72962 -46.25,149.0625 l 0,385.625 -112.5,0 0,-431.25 c -4.8e-4,-49.99952 -9.16713,-87.49948 -27.499998,-112.5 -18.333766,-24.99943 -48.333736,-37.49942 -89.9999997,-37.5 -31.6669963,5.8e-4 -60.9378003,8.3339 -87.8125003,25 -26.875242,16.6672 -46.354392,41.04218 -58.437502,73.125 -12.08353,32.08378 -18.12519,78.33374 -18.125,138.75 l 0,344.375 z"
           style="font-size:1280px;fill:#999999"
           id="path3022"
           inkscape:connector-curvature="0" />
        <path
           d="m 1223.2201,791.60071 0,-97.5 c -51.6672,75.00002 -121.8754,112.49998 -210.625,112.5 -39.16697,-2e-5 -75.72944,-7.50001 -109.68754,-22.5 -33.9585,-14.99998 -59.1668,-33.85413 -75.625,-56.5625 -16.45844,-22.70825 -28.02093,-50.52072 -34.6875,-83.4375 -4.58342,-22.08317 -6.87508,-57.08313 -6.875,-105 l 0,-411.25 112.5,0 0,368.125 c -1.9e-4,58.75023 2.29147,98.33353 6.875,118.75 7.08313,29.58348 22.08311,52.81262 45,69.6875 22.9164,16.87509 51.24974,25.31258 85.00004,25.3125 33.7496,8e-5 65.4162,-8.64574 95,-25.9375 29.5828,-17.29154 50.5203,-40.83319 62.8125,-70.625 12.2911,-29.79146 18.437,-73.02058 18.4375,-129.6875 l 0,-355.625 112.5,0 0,663.75 z"
           style="font-size:1280px;fill:#999999"
           id="path3024"
           inkscape:connector-curvature="0" />
        <path
           d="m 1455.7201,593.47571 111.25,-17.5 c 6.2498,44.5835 23.6456,78.75013 52.1875,102.5 28.5414,23.75009 68.4372,35.62508 119.6875,35.625 51.6663,8e-5 89.9995,-10.52075 115,-31.5625 24.9995,-21.04154 37.4995,-45.72901 37.5,-74.0625 -5e-4,-25.41646 -11.0422,-45.41644 -33.125,-60 -15.4171,-9.99975 -53.7504,-22.70807 -115,-38.125 -82.5003,-20.83303 -139.6877,-38.85385 -171.5625,-54.0625 -31.8752,-15.20798 -56.0418,-36.24963 -72.5,-63.125 -16.4584,-26.87458 -24.6876,-56.56205 -24.6875,-89.0625 -10e-5,-29.58282 6.7707,-56.97862 20.3125,-82.1875 13.5415,-25.20774 31.979,-46.14522 55.3125,-62.8125 17.4998,-12.91602 41.354,-23.85351 71.5625,-32.8125 30.2081,-8.95766 62.6039,-13.43682 97.1875,-13.4375 52.0829,6.8e-4 97.8121,7.50067 137.1875,22.5 39.3745,15.00064 68.437,35.31312 87.1875,60.9375 18.7494,25.62557 31.6661,59.89637 38.75,102.8125 l -110,15 c -5.0005,-34.16616 -19.4796,-60.8328 -43.4375,-80 -23.9588,-19.16609 -57.8129,-28.74942 -101.5625,-28.75 -51.667,5.8e-4 -88.5419,8.54224 -110.625,25.625 -22.0835,17.08387 -33.1252,37.08385 -33.125,60 -2e-4,14.58382 4.5831,27.7088 13.75,39.375 9.1664,12.08378 23.5414,22.08377 43.125,30 11.2497,4.16709 44.3747,13.75042 99.375,28.75 79.5829,21.25038 135.1037,38.6462 166.5625,52.1875 31.4578,13.542 56.1452,33.22948 74.0625,59.0625 17.916,25.8336 26.8744,57.9169 26.875,96.25 -6e-4,37.50016 -10.9381,72.81262 -32.8125,105.9375 -21.8756,33.12505 -53.438,58.75003 -94.6875,76.875 -41.2505,18.12499 -87.9171,27.18748 -140,27.1875 -86.2503,-2e-5 -151.9794,-17.91667 -197.1875,-53.75 -45.2085,-35.83326 -74.0626,-88.95821 -86.5625,-159.375 z"
           style="font-size:1280px;fill:#999999"
           id="path3026"
           inkscape:connector-curvature="0" />
        <path
           d="m 2141.3451,4.725708 0,-129.374998 112.5,0 0,129.374998 z m 0,786.875002 0,-663.75 112.5,0 0,663.75 z"
           style="font-size:1280px;fill:#999999"
           id="path3028"
           inkscape:connector-curvature="0" />
        <path
           d="m 2858.8451,548.47571 110.625,14.375 c -12.084,76.25015 -43.0215,135.93759 -92.8125,179.0625 -49.7922,43.125 -110.938,64.68748 -183.4375,64.6875 -90.8336,-2e-5 -163.8544,-29.68749 -219.0625,-89.0625 -55.2084,-59.37487 -82.8126,-144.47895 -82.8125,-255.3125 -1e-4,-71.66627 11.8749,-134.37454 35.625,-188.125 23.7499,-53.74943 59.8957,-94.06189 108.4375,-120.9375 48.5414,-26.87434 101.3538,-40.31182 158.4375,-40.3125 72.0829,6.8e-4 131.0411,18.22983 176.875,54.6875 45.8327,36.45892 75.2077,88.2297 88.125,155.3125 l -109.375,16.875 c -10.4172,-44.58284 -28.8547,-78.12447 -55.3125,-100.625 -26.4588,-22.49943 -58.4379,-33.74942 -95.9375,-33.75 -56.667,5.8e-4 -102.7086,20.31306 -138.125,60.9375 -35.4169,40.62548 -53.1252,104.89625 -53.125,192.8125 -2e-4,89.16691 17.0831,153.95851 51.25,194.375 34.1664,40.41676 78.7497,60.62508 133.75,60.625 44.1662,8e-5 81.0412,-13.54158 110.625,-40.625 29.5828,-27.08319 48.3328,-68.74982 56.25,-125 z"
           style="font-size:1280px;fill:#999999"
           id="path3030"
           inkscape:connector-curvature="0" />
      </g>
      <g
         style="font-size:40px;font-style:normal;font-weight:normal;line-height:125%;letter-spacing:0px;word-spacing:0px;fill:#00b5e3;fill-opacity:1;stroke:none;font-family:Sans"
         id="text3798">
        <path
           d="m 3389.594,1017.9757 0,-918.124992 102.5,0 0,86.250002 c 24.1664,-33.74939 51.4581,-59.06187 81.875,-75.9375 30.4164,-16.874332 67.2913,-25.311823 110.625,-25.312502 56.6662,6.79e-4 106.6662,14.583998 150,43.750002 43.3328,29.16727 76.0411,70.31306 98.125,123.4375 22.0827,53.12546 33.1243,111.35456 33.125,174.6875 -7e-4,67.91693 -12.1882,129.06271 -36.5625,183.4375 -24.3756,54.3751 -59.7922,96.04172 -106.25,125 -46.4588,28.95833 -95.3129,43.43748 -146.5625,43.4375 -37.5003,-2e-5 -71.1461,-7.91668 -100.9375,-23.75 -29.7919,-15.83331 -54.2711,-35.83329 -73.4375,-60 l 0,323.12499 z m 101.875,-582.49999 c -2e-4,85.41691 17.2915,148.54184 51.875,189.375 34.5831,40.83343 76.458,61.25008 125.625,61.25 49.9996,8e-5 92.812,-21.14574 128.4375,-63.4375 35.6245,-42.29149 53.4369,-107.81225 53.4375,-196.5625 -6e-4,-84.58291 -17.3964,-147.91618 -52.1875,-190 -34.7921,-42.08277 -76.3546,-63.12441 -124.6875,-63.125 -47.917,5.9e-4 -90.3128,22.3964 -127.1875,67.1875 -36.8752,44.79214 -55.3127,109.89624 -55.3125,195.3125 z"
           style="font-size:1280px;fill:#00b5e3"
           id="path3033"
           inkscape:connector-curvature="0" />
        <path
           d="m 4099.594,763.60071 0,-916.25 112.5,0 0,916.25 z"
           style="font-size:1280px;fill:#00b5e3"
           id="path3035"
           inkscape:connector-curvature="0" />
        <path
           d="m 4820.219,681.72571 c -41.6671,35.41671 -81.7713,60.41669 -120.3125,75 -38.542,14.58332 -79.8962,21.87498 -124.0625,21.875 -72.9169,-2e-5 -128.9585,-17.8125 -168.125,-53.4375 -39.1667,-35.62493 -58.7501,-81.14572 -58.75,-136.5625 -1e-4,-32.49979 7.3958,-62.18726 22.1875,-89.0625 14.7916,-26.87471 34.1666,-48.43719 58.125,-64.6875 23.9582,-16.24966 50.9373,-28.54131 80.9375,-36.875 22.0831,-5.83296 55.4164,-11.45796 100,-16.875 90.8329,-10.83294 157.7079,-23.7496 200.625,-38.75 0.4162,-15.41623 0.6245,-25.20789 0.625,-29.375 -5e-4,-45.83284 -10.6255,-78.12447 -31.875,-96.875 -28.7505,-25.4161 -71.4587,-38.12442 -128.125,-38.125 -52.917,5.8e-4 -91.9794,9.27141 -117.1875,27.8125 -25.2085,18.5422 -43.8544,51.35467 -55.9375,98.4375 l -110,-15 c 9.9999,-47.08281 26.4582,-85.10361 49.375,-114.0625 22.9165,-28.95772 56.0415,-51.24936 99.375,-66.875 43.3331,-15.624331 93.5414,-23.436823 150.625,-23.437502 56.6662,6.79e-4 102.7079,6.667339 138.125,20.000002 35.4161,13.33398 61.4578,30.10479 78.125,50.3125 16.6661,20.20892 28.3327,45.72973 35,76.5625 3.7494,19.16718 5.6244,53.75048 5.625,103.75 l 0,150 c -6e-4,104.5835 2.3952,170.72927 7.1875,198.4375 4.791,27.70838 14.2702,54.27086 28.4375,79.6875 l -117.5,0 c -11.6672,-23.33331 -19.1672,-50.62495 -22.5,-81.875 z m -9.375,-251.25 c -40.8338,16.66698 -102.0837,30.83363 -183.75,42.5 -46.2503,6.66695 -78.9586,14.16694 -98.125,22.5 -19.1669,8.33359 -33.9585,20.52108 -44.375,36.5625 -10.4168,16.04188 -15.6252,33.85436 -15.625,53.4375 -2e-4,30.00015 11.354,55.00012 34.0625,75 22.7081,20.00008 55.9372,30.00007 99.6875,30 43.333,7e-5 81.8746,-9.47909 115.625,-28.4375 33.7495,-18.95821 58.5412,-44.89569 74.375,-77.8125 12.0828,-25.41646 18.1245,-62.91643 18.125,-112.5 z"
           style="font-size:1280px;fill:#00b5e3"
           id="path3037"
           inkscape:connector-curvature="0" />
        <path
           d="m 5094.594,1019.2257 -12.5,-105.62499 c 24.5832,6.66651 46.0415,9.99984 64.375,10 24.9998,-1.6e-4 44.9998,-4.16682 60,-12.5 14.9998,-8.33347 27.2914,-20.00013 36.875,-35 7.0831,-11.2501 18.5414,-39.16674 34.375,-83.75 2.0831,-6.25002 5.4164,-15.41668 10,-27.5 l -251.875,-665.000002 121.25,0 138.125,384.375002 c 17.9164,48.75023 33.958,100.00018 48.125,153.75 12.9163,-51.66649 28.333,-102.08311 46.25,-151.25 l 141.875,-386.875002 112.5,0 -252.5,675.000002 c -27.0837,72.91658 -48.1253,123.12486 -63.125,150.625 -20.0003,37.08313 -42.9169,64.27061 -68.75,81.56249 -25.8336,17.2914 -56.6669,25.9372 -92.5,25.9375 -21.6668,-3e-4 -45.8334,-4.5836 -72.5,-13.75 z"
           style="font-size:1280px;fill:#00b5e3"
           id="path3039"
           inkscape:connector-curvature="0" />
        <path
           d="m 6193.969,549.85071 116.25,14.375 c -18.334,67.9168 -52.2923,120.62508 -101.875,158.125 -49.5838,37.5 -112.9171,56.24998 -190,56.25 -97.0836,-2e-5 -174.0627,-29.89582 -230.9375,-89.6875 -56.8751,-59.79153 -85.3126,-143.64562 -85.3125,-251.5625 -1e-4,-111.66623 28.7499,-198.33281 86.25,-260 57.4998,-61.66602 132.0831,-92.499323 223.75,-92.500002 88.7495,6.79e-4 161.2495,30.208982 217.5,90.625002 56.2494,60.41719 84.3743,145.41711 84.375,255 -7e-4,6.66699 -0.209,16.66698 -0.625,30 l -495,0 c 4.1665,72.91689 24.7915,128.75017 61.875,167.5 37.0831,38.75009 83.333,58.12508 138.75,58.125 41.2496,8e-5 76.4579,-10.83325 105.625,-32.5 29.1662,-21.66654 52.2911,-56.24984 69.375,-103.75 z m -369.375,-181.875 370.625,0 c -5.0005,-55.83288 -19.1672,-97.70784 -42.5,-125.625 -35.8338,-43.33277 -82.2921,-64.99942 -139.375,-65 -51.667,5.8e-4 -95.1044,17.29223 -130.3125,51.875 -35.2085,34.58383 -54.6877,80.83378 -58.4375,138.75 z"
           style="font-size:1280px;fill:#00b5e3"
           id="path3041"
           inkscape:connector-curvature="0" />
        <path
           d="m 6450.844,763.60071 0,-663.750002 101.25,0 0,100.625002 c 25.8331,-47.08273 49.6873,-78.12436 71.5625,-93.125 21.8747,-14.999331 45.9372,-22.499323 72.1875,-22.500002 37.9163,6.79e-4 76.4579,12.084 115.625,36.250002 l -38.75,104.375 c -27.5004,-16.24945 -55.0004,-24.37444 -82.5,-24.375 -24.5836,5.6e-4 -46.6669,7.39639 -66.25,22.1875 -19.5836,14.79219 -33.5419,35.313 -41.875,61.5625 -12.5002,40.00044 -18.7502,83.75039 -18.75,131.25 l 0,347.5 z"
           style="font-size:1280px;fill:#00b5e3"
           id="path3043"
           inkscape:connector-curvature="0" />
      </g>
    </g>
  </g>
</svg>
